Coordinates
version=1
nRows=7
nColumns=40
inDegrees=yes

Units are S.I. units (second, meters, Newtons, ...)
If the header above contains a line with 'inDegrees', this indicates whether rotational values are in degrees (yes) or radians (no).

endheader
time	pelvis_tilt	pelvis_list	pelvis_rotation	pelvis_tx	pelvis_ty	pelvis_tz	hip_flexion_r	hip_adduction_r	hip_rotation_r	knee_angle_r	knee_angle_r_beta	ankle_angle_r	subtalar_angle_r	mtp_angle_r	hip_flexion_l	hip_adduction_l	hip_rotation_l	knee_angle_l	knee_angle_l_beta	ankle_angle_l	subtalar_angle_l	mtp_angle_l	lumbar_extension	lumbar_bending	lumbar_rotation	arm_flex_r	arm_add_r	arm_rot_r	elbow_flex_r	pro_sup_r	wrist_flex_r	wrist_dev_r	arm_flex_l	arm_add_l	arm_rot_l	elbow_flex_l	pro_sup_l	wrist_flex_l	wrist_dev_l
      1.06000000	      2.01300852	     -9.64168069	     89.87381408	      0.18807607	      0.92300986	     -0.39352411	     19.15830671	      6.42144428	      1.34918329	      9.49023024	      0.16563576	      2.18804400	      0.00000000	      0.00000000	     23.98128285	     -3.48060542	     -0.58930022	     62.33054499	      1.08787323	     -6.57026043	      0.00000000	      0.00000000	      6.59739936	      1.64160418	      5.92996835	      0.00000000	      0.00000000	      0.00000000	      0.00000000	      0.00000000	      0.00000000	      0.00000000	      0.00000000	      0.00000000	      0.00000000	      0.00000000	      0.00000000	      0.00000000	      0.00000000
      1.07000000	      1.85058138	     -9.69377820	     89.87181067	      0.18833955	      0.92412119	     -0.40572019	     17.97419583	      6.30829474	      1.67319467	      8.79719982	      0.15354010	      2.64777259	      0.00000000	      0.00000000	     25.55065166	     -3.33077192	     -0.63523269	     62.01635001	      1.08238950	     -4.66932504	      0.00000000	      0.00000000	      6.60500385	      1.34226183	      6.10657168	      0.00000000	      0.00000000	      0.00000000	      0.00000000	      0.00000000	      0.00000000	      0.00000000	      0.00000000	      0.00000000	      0.00000000	      0.00000000	      0.00000000	      0.00000000	      0.00000000
      1.08000000	      1.71855674	     -9.69040123	     89.86778095	      0.18850131	      0.92512308	     -0.41786001	     16.73809010	      6.20924936	      1.99333596	      8.10058374	      0.14138186	      3.09604715	      0.00000000	      0.00000000	     26.97412252	     -3.21655959	     -0.73244185	     61.34148239	      1.07061084	     -2.88374576	      0.00000000	      0.00000000	      6.49455211	      1.12696138	      6.26974980	      0.00000000	      0.00000000	      0.00000000	      0.00000000	      0.00000000	      0.00000000	      0.00000000	      0.00000000	      0.00000000	      0.00000000	      0.00000000	      0.00000000	      0.00000000	      0.00000000
      1.09000000	      1.56747731	     -9.67336192	     89.86387721	      0.18868335	      0.92591265	     -0.43003455	     15.49528759	      6.09139103	      2.29155737	      7.42394811	      0.12957234	      3.54599580	      0.00000000	      0.00000000	     28.28690342	     -3.09193335	     -0.88154210	     60.34027086	      1.05313640	     -1.36306006	      0.00000000	      0.00000000	      6.39432066	      0.85548001	      6.36297534	      0.00000000	      0.00000000	      0.00000000	      0.00000000	      0.00000000	      0.00000000	      0.00000000	      0.00000000	      0.00000000	      0.00000000	      0.00000000	      0.00000000	      0.00000000	      0.00000000
      1.10000000	      1.46816655	     -9.51043912	     89.86017290	      0.18882795	      0.92668782	     -0.44233094	     14.05440872	      6.02578384	      2.59359048	      6.67576447	      0.11651407	      3.97217250	      0.00000000	      0.00000000	     29.32173490	     -3.02811921	     -1.06660784	     59.00696895	      1.02986589	      0.02744076	      0.00000000	      0.00000000	      6.10968425	      0.66807322	      6.48261259	      0.00000000	      0.00000000	      0.00000000	      0.00000000	      0.00000000	      0.00000000	      0.00000000	      0.00000000	      0.00000000	      0.00000000	      0.00000000	      0.00000000	      0.00000000	      0.00000000
      1.11000000	      1.35528589	     -9.37652455	     89.85653831	      0.18894521	      0.92719022	     -0.45463135	     12.66311585	      5.93254577	      2.86351771	      5.96418237	      0.10409462	      4.40332240	     -0.00000000	      0.00000000	     30.28819689	     -2.95210050	     -1.28565211	     57.36705159	      1.00124393	      1.14136743	     -0.00000000	     -0.00000000	      5.88869294	      0.45449574	      6.53682003	     -0.00000000	     -0.00000000	      0.00000000	      0.00000000	      0.00000000	      0.00000000	     -0.00000000	     -0.00000000	     -0.00000000	     -0.00000000	      0.00000000	      0.00000000	     -0.00000000	      0.00000000
      1.12000000	      1.26002808	     -9.23871116	     89.85215948	      0.18901516	      0.92742620	     -0.46696757	     11.27548278	      5.85410511	      3.13456524	      5.27327751	      0.09203605	      4.85937408	     -0.00000000	     -0.00000000	     31.14838664	     -2.88887494	     -1.52024240	     55.46017900	      0.96796273	      2.11043469	      0.00000000	     -0.00000000	      5.65563800	      0.26866759	      6.58700829	     -0.00000000	     -0.00000000	     -0.00000000	      0.00000000	      0.00000000	     -0.00000000	     -0.00000000	     -0.00000000	     -0.00000000	      0.00000000	      0.00000000	      0.00000000	      0.00000000	      0.00000000
